<svg id="Group_46837" data-name="Group 46837" xmlns="http://www.w3.org/2000/svg" xmlns:xlink="http://www.w3.org/1999/xlink" width="404" height="404" viewBox="0 0 404 404">
  <defs>
    <clipPath id="clip-path">
      <rect id="Rectangle_17303" data-name="Rectangle 17303" width="404" height="404" fill="none"/>
    </clipPath>
  </defs>
  <circle id="Ellipse_243" data-name="Ellipse 243" cx="160.205" cy="160.205" r="160.205" transform="translate(41.525 41.795)" fill="#4958fc" opacity="0.22"/>
  <g id="Group_46833" data-name="Group 46833" transform="translate(253.944 46.559)">
    <path id="Path_32496" data-name="Path 32496" d="M441.318,98.61c-1.761-11.827-7.517-24.767-17.925-31.353-10.868-6.877-25.046-9.085-37.679-9.534-13.565-.482-28.683.655-41.292,6.022a49.932,49.932,0,0,0-24.169,22.05c-6.318,11.734-7.918,26.511-3.348,39.136,3.491,9.643,10.9,18.777,21.251,20.722-.012.034-.027.062-.037.1a26.308,26.308,0,0,1-12.32,16.227,1.37,1.37,0,0,0,.686,2.532,36.827,36.827,0,0,0,16.474-2.9c5.66-2.4,9.7-6.028,14.024-10.252,3.006-2.936,6.639-2.189,10.485-2.2q5.888-.017,11.766-.41a189.5,189.5,0,0,0,20.673-2.531c11.6-2.072,24.07-5.22,32.3-14.284C440.36,122.951,443.073,110.4,441.318,98.61Z" transform="translate(-314.287 -57.623)" fill="#e8bd3d"/>
    <text id="وظائف" transform="translate(13.056 53.441)" fill="#fff" font-size="34" font-family="SegoeUI, Segoe UI"><tspan x="0" y="0">وظائف</tspan></text>
  </g>
  <g id="Group_46836" data-name="Group 46836">
    <g id="Group_46835" data-name="Group 46835" clip-path="url(#clip-path)">
      <g id="Group_46834" data-name="Group 46834" transform="translate(-33.344 114.634)">
        <path id="Path_32497" data-name="Path 32497" d="M272.327,201.459q-3.425-6.014-6.906-12-2.44-4.213-4.912-8.408c.722-.446,1.442-.937,2.2-1.319,2.582-1.323,5.276-.218,7.245,1.8,1.5,1.539,2.674,3.884,3.813,5.7a51.848,51.848,0,0,1,3.062,5.143c2.07,4.328-.9,7.249-4.431,9.029A.7.7,0,0,0,272.327,201.459Z" transform="translate(-16.674 -149.033)" fill="#f5f5f5"/>
        <path id="Path_32498" data-name="Path 32498" d="M246.751,190.975c-6.889-12.292-13.079-25.2-20.343-37.306.006-.011.01-.03.017-.041a.94.94,0,0,0-.758-1.166c-.541-.882-1.067-1.776-1.614-2.647a.721.721,0,0,0-.358-.295,17.736,17.736,0,0,1,9.475-5.444.572.572,0,0,0,.162-.086c3.446,6.979,7.951,13.538,11.925,20.212q5.991,10.071,11.868,20.2,11.984,20.65,23.459,41.566a.9.9,0,0,0,.164.215c-2.025,4.325-5.721,6.137-10.446,5.7a1.848,1.848,0,0,0-.084-.19Q258.257,211.466,246.751,190.975Zm-16.561-36.941c1.219,1.692,2.331,3.356,3.408,5.139.387.636,1.4.071,1.019-.575a25.9,25.9,0,0,0-3.826-5.016C230.5,153.3,229.927,153.679,230.191,154.034Zm-3.286-2.046a15.9,15.9,0,0,0,5.075,7.378c.485.364,1.022-.383.634-.8a26.015,26.015,0,0,1-5.02-6.862C227.426,151.327,226.758,151.585,226.9,151.988Z" transform="translate(-9.606 -142.28)" fill="#f5f5f5"/>
        <path id="Path_32499" data-name="Path 32499" d="M158.051,223.611a42.776,42.776,0,0,1-6.815,3.7c-.4.155-.132.83.276.7a21.772,21.772,0,0,0,7.113-3.644C159.034,224.024,158.51,223.322,158.051,223.611Zm-2.81.591c.444-.239.158-1.019-.341-.849a25.212,25.212,0,0,0-7.643,4.638c-.349.289.107.907.472.642A58.624,58.624,0,0,1,155.241,224.2Zm-39,19.923c.006-.01.018,0,.026-.006,7.329-3.735,14.357-8.119,21.486-12.216q5.345-3.08,10.707-6.163c3.436-1.976,7.016-4.8,10.706-6.163.513-.293,1.024-.595,1.528-.886q3.085-.633,3.916,2c1.248,1.365,2.106,3.522,3.063,5.115q2.847,4.744,5.7,9.495L179.5,245.52c1.667,2.789,7.1,9.108,4.442,12.473a10.56,10.56,0,0,1-2.647,2.237c-2.368,1.517-5.369,2.705-7.321,3.834q-4.866,2.8-9.722,5.6c-5.149,2.962-10.247,6.24-15.482,9.151-1.555.856-3.124,1.687-4.714,2.469a8.128,8.128,0,0,1-7.793.92,15.869,15.869,0,0,1-2.118-2.8c-.991-1.438-1.859-2.971-2.78-4.454q-3.247-5.192-6.5-10.393C121.933,259.859,113.3,250.174,116.244,244.125Z" transform="translate(11.141 -156.599)" fill="#f5f5f5"/>
        <path id="Path_32500" data-name="Path 32500" d="M85.229,380.832c2.407-.848,4.851-1.7,7.2-2.7.414-.177.132-.9-.3-.751-2.4.883-4.766,1.932-7.1,2.973C84.77,380.461,84.951,380.929,85.229,380.832Zm6.752-1.237c.356-.3-.1-.91-.483-.649a39.181,39.181,0,0,1-8.828,4.549c-.327.119-.218.632.136.543A24.189,24.189,0,0,0,91.982,379.595Zm12-44.311c2.826,5.852,6.174,11.445,9.362,17.1q2.343,4.155,4.681,8.292c1.2,2.119,2.131,4.679,4.042,6.244a.96.96,0,0,0,.452.2.472.472,0,0,0,.151.017c-6.182,3.192-12.064,6.887-18.358,9.888a212.207,212.207,0,0,1-21.084,8.617A347.279,347.279,0,0,1,42.495,396.9a230.48,230.48,0,0,1-40.516,5.621,143.939,143.939,0,0,1-39.872-4.413.472.472,0,0,0-.021-.2c-2.214-6.517-.863-13.834.283-20.467a135.027,135.027,0,0,1,4.248-17.1,195.519,195.519,0,0,0,70,.691c23.184-3.986,47.95-11.828,67.251-25.642A.34.34,0,0,0,103.977,335.284Z" transform="translate(40.851 -179.008)" fill="#4958fc"/>
        <path id="Path_32501" data-name="Path 32501" d="M162.529,359.418a1.761,1.761,0,0,1,2.368.792,1.3,1.3,0,0,1-1.04,1.743c-1.741.472-2.206-1.353-1.531-2.5A.514.514,0,0,0,162.529,359.418Z" transform="translate(2.234 -183.613)" fill="#f5f5f5"/>
        <path id="Path_32502" data-name="Path 32502" d="M153.57,352.205a3.293,3.293,0,0,1,1.327-3.125c.385-.288.045-.954-.379-.675a3.743,3.743,0,0,0-1.551,3.95C153.066,352.753,153.622,352.6,153.57,352.205Zm2.568-1.382c-1.679.355-2.283,2.7-1.363,4a.314.314,0,0,0,.545-.31,2.157,2.157,0,0,1,1.113-2.952A.4.4,0,0,0,156.138,350.823Zm7.651,7.349a47.667,47.667,0,0,1-7.458,4.316l-.1.053c-.978-1.606-1.771-3.386-2.654-4.943l-4.687-8.281c-2.312-4.085-4.56-8.213-7-12.228a.82.82,0,0,0,.976.168c3.3-1.521,6.462-3.427,9.616-5.25.653.707,1.332,1.371,2.043,2.018a.532.532,0,0,0,.452.124.622.622,0,0,0,.28.242,101.762,101.762,0,0,0,8.5,15.362.858.858,0,0,0,.161.867c.869,1.056,2,2.22,2.295,3.613C166.582,356.045,165.052,357.178,163.789,358.172Zm-6.311-4.588a3.169,3.169,0,0,0-.641,2.313,2.7,2.7,0,0,0,3.559,2.078,2.616,2.616,0,0,0,1.84-3.564,3.233,3.233,0,0,0-2.752-1.777.046.046,0,0,0-.039-.009.19.19,0,0,1-.071.009,2.524,2.524,0,0,0-.442.065A2.264,2.264,0,0,0,157.477,353.584Z" transform="translate(6.1 -178.379)" fill="#f5f5f5"/>
        <path id="Path_32503" data-name="Path 32503" d="M222.523,322.872c4.474-.275,3.645,5.1,1.541,7.236a10.864,10.864,0,0,1-3.871,2.359c-1.441.57-5.041,2.038-7.173,1.644a11.28,11.28,0,0,1-1.286-2.8,7.689,7.689,0,0,1,0-2.72A21.105,21.105,0,0,0,222.523,322.872Z" transform="translate(-7.286 -176.623)" fill="#ebd7be"/>
        <path id="Path_32504" data-name="Path 32504" d="M208.374,325.339c-4.33.229-4.1-3.712-3.341-6.813A22.209,22.209,0,0,0,218,311.239a12.61,12.61,0,0,1,2.65,1.261q2.226,4.184-.568,6.525a15.943,15.943,0,0,1-4.158,3.264,29.084,29.084,0,0,1-7.488,3.06A.41.41,0,0,1,208.374,325.339Z" transform="translate(-5.94 -174.392)" fill="#ebd7be"/>
        <path id="Path_32505" data-name="Path 32505" d="M212.843,301.282a2.559,2.559,0,0,1,3.519,1.4c1.524.563,1.918,1.3,1.168,2.218-.367,1.905-3,4.083-4.4,5.285a24.791,24.791,0,0,1-9.768,4.858.557.557,0,0,0-.323.026,3.034,3.034,0,0,1-3.905-1.3,7.057,7.057,0,0,1-.6-4.183c4.836-.915,10.126-4.562,13.252-8.182.239-.032.48-.056.713-.078a.541.541,0,0,0,.171-.015c.028,0,.063-.006.09,0,.024-.015.044-.011.067-.027Z" transform="translate(-4.763 -172.434)" fill="#ebd7be"/>
        <path id="Path_32506" data-name="Path 32506" d="M207.207,291.782c2.9.486,5.437,3.176,3.356,6.031-.009,0-.015.013-.023.015-.306.058-.61.125-.91.209a.828.828,0,0,0-.576.776c-2.11,1.452-4.134,3.028-6.358,4.317a29.109,29.109,0,0,1-4.382,2.148c-2.253.846-9.932,1.637-7.344-3.808.013-.022.017-.041.023-.052,1.61-1.364,3.167-2.65,4.43-3.9a12.377,12.377,0,0,0,1.235-1.434,26.2,26.2,0,0,1,4.981-3.158A9.455,9.455,0,0,1,207.207,291.782Z" transform="translate(-3.222 -170.639)" fill="#ebd7be"/>
        <path id="Path_32507" data-name="Path 32507" d="M163.352,317.076a4.766,4.766,0,0,0-.065,5.054.369.369,0,0,0,.642-.362,4.765,4.765,0,0,1,.253-4.194A.484.484,0,0,0,163.352,317.076Zm-3.832,8.091c-.287-8.446,1.4-15.964,6.48-22.9a53.31,53.31,0,0,1,4.363-5.12c5.887-6.132,15.07-13.115,19.79-6.206.312,2.276-2.6,5.523-5.784,8.451a.8.8,0,0,0-.919.431,5.909,5.909,0,0,0-.321.694c-2.589,2.286-5.1,4.251-5.945,5.2-3,3.368-4.821,7.395-3.531,11.9a.911.911,0,0,0,1.767-.441,10.766,10.766,0,0,1,1.955-8.676c3.617,7.331,7.783,14.4,11.756,21.546,1.049,1.89,2.179,4.914,3.75,7.388-6.942,6.239-15.34,7.229-23.843,3.875a.8.8,0,0,0-.078-.237c-3.014-5.283-6.06-10.622-9.334-15.739C159.594,325.277,159.553,325.224,159.521,325.168Zm2.942-.176a26.441,26.441,0,0,1-1.04-5.592.437.437,0,0,0-.874-.02,13.969,13.969,0,0,0,1.223,5.886C161.93,325.647,162.589,325.391,162.463,324.991Z" transform="translate(2.721 -169.944)" fill="#ebd7be"/>
        <path id="Path_32508" data-name="Path 32508" d="M205.638,339.774c.479-.247.164-.957-.342-.857a4.913,4.913,0,0,1-5.2-1.5c-.306-.344-.927.1-.664.5C200.682,339.8,203.548,340.864,205.638,339.774Zm-2.887-2.722a4.643,4.643,0,0,0,4.728.743c.5-.2.155-1.065-.347-.875a4.146,4.146,0,0,1-3.937-.436C202.866,336.262,202.428,336.784,202.751,337.052Zm1.773-11.314a6.471,6.471,0,0,0,.906,5.205c1.051,2.009,3.457,1.518,5.37,1.187a18.433,18.433,0,0,0,8.061-3.039c-.02,1.461-.032,2.92-.042,4.379-.617.465-1.235.923-1.852,1.388-.877.631-1.8,1.21-2.7,1.818-1.8,1.21-3.606,2.43-5.41,3.641a15.963,15.963,0,0,1-2.376,1.563c-1.572.676-5.149.324-6.508-.865-1.452-1.268-2.559-4.564-3.464-6.205-4.489-8.074-8.769-16.339-13.683-24.169a37.1,37.1,0,0,1,4.507-4.579c.276,2.569,2.829,4.615,5.674,4.711a8.985,8.985,0,0,0,1.147-.03c-.475,2.06-.335,4.379,1.194,5.957a4.407,4.407,0,0,0,3.873,1.35,6.577,6.577,0,0,0,.084,5.841C200.3,325.547,202.726,326.974,204.524,325.737Z" transform="translate(-1.76 -173.398)" fill="#c83b44"/>
        <path id="Path_32509" data-name="Path 32509" d="M190.013,272.325a53.976,53.976,0,0,0,6.326,14.586,18.455,18.455,0,0,0-4.192,2.356,3.372,3.372,0,0,0-.106-1.155.713.713,0,0,0,0-.44c-3.687-11.278-18.233.6-22.534,4.83a16.585,16.585,0,0,0-9.269-3.079q4.889-2.814,9.769-5.627C176.656,279.974,183.485,276.364,190.013,272.325Z" transform="translate(2.577 -166.92)" fill="#c83b44"/>
        <path id="Path_32510" data-name="Path 32510" d="M181.841,273.964c1.952-1.129,4.953-2.317,7.321-3.834l.4.606a.75.75,0,0,0-.318.894c.024.095.054.179.078.273-6.529,4.039-13.357,7.649-20,11.471q-4.889,2.814-9.769,5.627c-.8-.048-1.589-.053-2.36-.024a.823.823,0,0,0-.353.088l-.2-.354c5.235-2.91,10.333-6.189,15.482-9.151Q176.973,276.769,181.841,273.964Z" transform="translate(3.269 -166.499)" fill="#222221"/>
        <path id="Path_32511" data-name="Path 32511" d="M204.64,286.281a10.428,10.428,0,0,0-1.227.407,53.976,53.976,0,0,1-6.326-14.586c.47-.282.938-.573,1.406-.864.039-.028.079-.048.11-.074a1.141,1.141,0,0,1,.105.239,118.224,118.224,0,0,0,5.9,14.8A.248.248,0,0,1,204.64,286.281Z" transform="translate(-4.497 -166.698)" fill="#222221"/>
        <path id="Path_32512" data-name="Path 32512" d="M206.144,289.873a.634.634,0,0,1-1.136.549l-.09-.142A10.434,10.434,0,0,1,206.144,289.873Z" transform="translate(-6.001 -170.289)" fill="#222221"/>
        <path id="Path_32513" data-name="Path 32513" d="M159.493,293.476l-2.195,1.262c-.153.084-.295.175-.448.259a.8.8,0,0,1-.071-1.457.822.822,0,0,1,.353-.088C157.9,293.424,158.694,293.428,159.493,293.476Z" transform="translate(3.324 -170.973)" fill="#222221"/>
        <path id="Path_32514" data-name="Path 32514" d="M242.371,194.246c3.53-1.779,6.5-4.7,4.431-9.029a51.848,51.848,0,0,0-3.062-5.143c-1.139-1.813-2.311-4.158-3.813-5.7-1.969-2.018-4.663-3.122-7.245-1.8-.756.381-1.476.873-2.2,1.319q2.466,4.206,4.912,8.408,3.487,5.985,6.906,12A.7.7,0,0,1,242.371,194.246Zm-111.86,71.868c-.965-1.444-1.8-2.977-2.561-4.2-4.483-7.169-9.106-14.276-13.444-21.527-.345-.574-.681-1.149-1-1.748-7.844,5.6-9.677,15.2-4.939,23.645C113.688,271.4,122.554,270.63,130.512,266.114Zm16.313-.217c-2.669,1.6-5.57,3.882-8.592,4.581-2.858.659-4.959-.822-6.647-2.891-8.476,5.926-19.344,5.169-24.676-4.371-4.659-8.315-3.964-21.668,5.953-25.858-1.437-3.076-2.138-6.4-.15-9.515a.918.918,0,0,1,1.237-.327c8.174-5.229,16.83-9.808,25.247-14.648q6.115-3.52,12.237-7.04c2.336-1.353,6.113-4.714,9.005-4.355,1.965.242,2.674,2.016,3.626,3.554.095.16.189.319.292.477,19.261-11.807,30.941-30.468,37.035-51.91-.534-1.149-1.062-2.308-1.572-3.472a.487.487,0,0,1-.028-.112.731.731,0,0,1-.784-1.05,14.668,14.668,0,0,1,11.006-7.053.718.718,0,0,1,.347.032.5.5,0,0,1,.659.146c4.559,6.006,8.187,12.829,12.045,19.294q3.412,5.687,6.769,11.407c2.289-2.056,5.507-4.132,8.6-2.6,2.927,1.449,4.9,5.719,6.555,8.309,2.039,3.182,5.575,7.51,4.6,11.6-.721,3.02-3.667,4.644-6.324,5.738-.026.006-.054,0-.08.01q8.165,14.323,16.107,28.775a1.317,1.317,0,0,1,.078.164.9.9,0,0,1,.353.937c-.937,5.455-8.078,9.243-13.094,6.942a.9.9,0,0,1-1.032-.429c-.651-1.1-1.293-2.205-1.935-3.309a.511.511,0,0,1-.176-.011c-10.575-2.772-20.922-4.08-31.816-2.413-10.3,1.584-19.331,5.624-28.293,10.738,2.169,4.029,1.181,6.675-2.619,9.1a.92.92,0,0,0-1.276-.23l-.4-.606a10.56,10.56,0,0,0,2.647-2.237c2.658-3.365-2.775-9.684-4.442-12.473l-6.125-10.221q-2.849-4.756-5.7-9.495c-.957-1.593-1.816-3.75-3.063-5.115q-.836-2.635-3.916-2c-.5.291-1.015.592-1.528.886-3.69,1.361-7.27,4.188-10.706,6.163q-5.358,3.082-10.707,6.163c-7.128,4.1-14.157,8.482-21.486,12.216-.008,0-.019,0-.026.006-2.949,6.049,5.688,15.734,8.62,20.434q3.248,5.192,6.5,10.393c.92,1.483,1.788,3.015,2.78,4.454a15.868,15.868,0,0,0,2.118,2.8,8.128,8.128,0,0,0,7.793-.92c1.59-.782,3.159-1.614,4.714-2.469l.2.354A.8.8,0,0,0,146.825,265.9Zm56.627-112.634c7.264,12.107,13.454,25.014,20.343,37.306q11.493,20.5,23.468,40.721a1.855,1.855,0,0,1,.084.19c4.724.432,8.421-1.379,10.446-5.7a.9.9,0,0,1-.164-.215q-11.487-20.913-23.459-41.566-5.881-10.126-11.868-20.2c-3.975-6.674-8.479-13.233-11.925-20.212a.572.572,0,0,1-.162.086,17.736,17.736,0,0,0-9.475,5.444.721.721,0,0,1,.358.295c.547.871,1.072,1.765,1.614,2.647a.94.94,0,0,1,.758,1.166C203.462,153.233,203.458,153.252,203.452,153.263Zm18.673,38.245c-6.508-11.609-13.654-23.242-19.482-35.286-5.9,20.366-18.274,40.667-37.379,50.787,1.654,2.738,3.287,5.5,4.933,8.238,4.117,6.875,8.531,13.659,12.432,20.662,16.113-12.02,40.568-15.535,59.681-9.271Q232.053,209.169,222.125,191.508Z" transform="translate(13.351 -141.874)" fill="#222221"/>
        <path id="Path_32515" data-name="Path 32515" d="M198.576,271.073c-.031.026-.071.045-.11.074-.468.291-.936.582-1.406.864-.023-.095-.053-.179-.078-.273a.75.75,0,0,1,.318-.894A.92.92,0,0,1,198.576,271.073Z" transform="translate(-4.47 -166.605)" fill="#222221"/>
        <path id="Path_32516" data-name="Path 32516" d="M205.438,307.2c1.4-1.2,4.038-3.38,4.4-5.285.751-.92.356-1.655-1.168-2.218a2.559,2.559,0,0,0-3.519-1.4l-.017,0c-.023.015-.043.011-.067.027-.027,0-.062.006-.09,0a.541.541,0,0,1-.171.015c-.233.022-.473.045-.713.078-3.126,3.62-8.416,7.267-13.252,8.182a7.057,7.057,0,0,0,.6,4.183,3.034,3.034,0,0,0,3.905,1.3.557.557,0,0,1,.323-.026A24.791,24.791,0,0,0,205.438,307.2Zm1.627,10.145a15.944,15.944,0,0,0,4.158-3.264q2.8-2.333.568-6.525a12.611,12.611,0,0,0-2.65-1.261,22.209,22.209,0,0,1-12.972,7.287c-.755,3.1-.989,7.043,3.341,6.813a.409.409,0,0,0,.067.01A29.086,29.086,0,0,0,207.065,317.341Zm7.112,7.795a18.433,18.433,0,0,1-8.061,3.039c-1.913.331-4.319.822-5.37-1.187a6.471,6.471,0,0,1-.906-5.205c-1.8,1.236-4.224-.191-5.216-1.848a6.577,6.577,0,0,1-.084-5.841,4.407,4.407,0,0,1-3.873-1.35c-1.53-1.578-1.669-3.9-1.194-5.957a8.985,8.985,0,0,1-1.147.03c-2.845-.1-5.4-2.142-5.674-4.711a37.1,37.1,0,0,0-4.507,4.579c4.913,7.83,9.193,16.095,13.683,24.169.9,1.642,2.012,4.938,3.464,6.205,1.36,1.189,4.937,1.542,6.508.865a15.963,15.963,0,0,0,2.376-1.563c1.8-1.211,3.606-2.43,5.41-3.641.892-.608,1.819-1.187,2.7-1.818.617-.465,1.235-.923,1.852-1.388C214.146,328.056,214.157,326.6,214.177,325.136Zm-1.864-9.445a21.105,21.105,0,0,1-10.79,5.717,7.689,7.689,0,0,0,0,2.72,11.28,11.28,0,0,0,1.286,2.8c2.132.393,5.731-1.074,7.173-1.644a10.864,10.864,0,0,0,3.871-2.359C215.958,320.789,216.787,315.416,212.313,315.691Zm-8.829-18.851c.3-.084.6-.151.91-.209.008,0,.015-.013.023-.015,2.081-2.855-.46-5.544-3.356-6.031a9.455,9.455,0,0,0-5.567,1.143,26.2,26.2,0,0,0-4.981,3.158,12.375,12.375,0,0,1-1.235,1.434c-1.264,1.25-2.82,2.536-4.43,3.9-.006.01-.01.03-.023.052-2.588,5.445,5.091,4.654,7.344,3.808a29.115,29.115,0,0,0,4.382-2.148c2.224-1.289,4.248-2.865,6.358-4.317A.827.827,0,0,1,203.484,296.84Zm-36.551,43.976a101.762,101.762,0,0,1-8.5-15.362l.99-.622c3.274,5.117,6.32,10.456,9.334,15.739a.8.8,0,0,1,.078.237c8.5,3.354,16.9,2.364,23.843-3.875-1.571-2.474-2.7-5.5-3.75-7.388C184.956,322.4,180.79,315.33,177.173,308a10.766,10.766,0,0,0-1.955,8.676.911.911,0,0,1-1.767.441c-1.29-4.5.534-8.532,3.531-11.9.843-.953,3.356-2.918,5.945-5.2a5.909,5.909,0,0,1,.321-.694.8.8,0,0,1,.919-.431c3.179-2.927,6.1-6.175,5.784-8.451-4.72-6.908-13.9.074-19.79,6.206l-1.086-.535c.371-.093.625-.65.28-.931-.069-.057-.127-.106-.194-.154,4.3-4.233,18.847-16.108,22.534-4.83a.713.713,0,0,1,0,.44,3.372,3.372,0,0,1,.106,1.155,18.455,18.455,0,0,1,4.192-2.356l.09.142a.634.634,0,0,0,1.136-.549,9.231,9.231,0,0,1,5.709.086c3.118,1.117,4.992,4.551,3.685,7.387,3.849.192,7.189,2.637,4.506,7.081-.246.409-.515.8-.793,1.187,3.9,1.618,6.815,4.736,3.752,8.9-.061.088-.133.161-.194.25,4.118.867,4.459,6.341,1.875,9.67,3.23,2.115,1.227,6.05-1.285,8.1-2.884,2.35-6.268,4.276-9.361,6.34-1.845,1.23-3.893,2.859-6.188,3.02-2.258.161-3.984-1.1-5.387-2.9a21.591,21.591,0,0,1-22.853,5.5,4.538,4.538,0,0,1-.284,4.916,18.339,18.339,0,0,1-10.355,6.029l-.541-1.029a47.667,47.667,0,0,0,7.458-4.316c1.263-.994,2.793-2.127,2.423-3.939-.292-1.392-1.426-2.557-2.295-3.613A.858.858,0,0,1,166.933,340.817Z" transform="translate(2.924 -169.443)" fill="#222221"/>
        <path id="Path_32517" data-name="Path 32517" d="M168.027,297.438c-3.585-1.412-6.835-2.579-10.82-2.4a.6.6,0,0,1-.237-.032c.153-.084.295-.175.448-.259.729-.42,1.466-.843,2.195-1.262a16.586,16.586,0,0,1,9.269,3.079Q168.45,296.99,168.027,297.438Z" transform="translate(3.205 -170.983)" fill="#222221"/>
        <path id="Path_32518" data-name="Path 32518" d="M141.974,329.34c3.261-2.014,6.8-3.657,10.228-5.365a.73.73,0,0,1,.892.124c.465.617.931,1.233,1.39,1.861-1.851-10.089,3.731-20.449,10.586-27.584.162.061.326.13.5.2a.4.4,0,0,0,.27.015l1.086.535a53.314,53.314,0,0,0-4.363,5.119c-5.082,6.938-6.767,14.457-6.48,22.9.032.057.074.11.106.166l-.99.622a.621.621,0,0,1-.28-.242.532.532,0,0,1-.452-.124c-.711-.647-1.39-1.311-2.043-2.018-3.154,1.823-6.314,3.729-9.616,5.25a.82.82,0,0,1-.976-.168l-.207-.314A.787.787,0,0,1,141.974,329.34Z" transform="translate(6.162 -171.922)" fill="#222221"/>
        <path id="Path_32519" data-name="Path 32519" d="M171.7,297.451c.345.28.09.838-.28.931a.4.4,0,0,1-.27-.015c-.172-.066-.336-.136-.5-.2q.424-.449.854-.873C171.575,297.345,171.633,297.394,171.7,297.451Z" transform="translate(0.578 -171.715)" fill="#222221"/>
        <path id="Path_32520" data-name="Path 32520" d="M236.761,223.154a30.132,30.132,0,0,1,7.383,1.069.6.6,0,0,0,.336-1.147,15.346,15.346,0,0,0-7.813-.769C236.185,222.392,236.29,223.143,236.761,223.154Zm20.076,6.893c-19.112-6.264-43.567-2.749-59.681,9.271-3.9-7-8.315-13.787-12.432-20.662-1.646-2.74-3.279-5.5-4.933-8.238C198.9,200.3,211.274,180,217.17,159.631c5.828,12.044,12.974,23.678,19.482,35.286Q246.558,212.583,256.836,230.047Zm-24.147-5.3c-.452.168-.3.873.187.751a20.071,20.071,0,0,1,8.086-.115c.543.084.619-.75.141-.9A13.361,13.361,0,0,0,232.689,224.748Z" transform="translate(-1.176 -145.283)" fill="#c83b44"/>
        <path id="Path_32521" data-name="Path 32521" d="M125.244,288.985c.564-.049.571-.939.017-.883a18.233,18.233,0,0,1-7.032-.689.3.3,0,0,0-.168.573A16.253,16.253,0,0,0,125.244,288.985Zm5.709.122c-7.958,4.515-16.824,5.283-21.94-3.835-4.737-8.443-2.9-18.05,4.939-23.645.314.6.65,1.175,1,1.749,4.338,7.251,8.962,14.357,13.444,21.527C129.156,286.13,129.988,287.663,130.952,289.107Zm-12.409.48a12.19,12.19,0,0,1-4-2.034c-.246-.176-.567.225-.335.423,2.269,1.934,5.831,3.545,8.874,2.858a.4.4,0,0,0-.088-.793A20.9,20.9,0,0,1,118.543,289.587Z" transform="translate(12.91 -164.866)" fill="#c83b44"/>
        <path id="Path_32522" data-name="Path 32522" d="M232.319,155.837a25.9,25.9,0,0,1,3.826,5.016c.381.646-.632,1.211-1.019.575-1.077-1.782-2.189-3.447-3.408-5.139C231.455,155.934,232.028,155.553,232.319,155.837Z" transform="translate(-11.133 -144.536)" fill="#222221"/>
        <path id="Path_32523" data-name="Path 32523" d="M257.585,239.071A30.132,30.132,0,0,0,250.2,238c-.47-.011-.575-.763-.093-.847a15.346,15.346,0,0,1,7.813.769A.6.6,0,0,1,257.585,239.071Z" transform="translate(-14.617 -160.13)" fill="#222221"/>
        <path id="Path_32524" data-name="Path 32524" d="M228.351,153.5a26.015,26.015,0,0,0,5.02,6.862c.388.416-.149,1.164-.634.8a15.9,15.9,0,0,1-5.075-7.378C227.515,153.375,228.183,153.116,228.351,153.5Z" transform="translate(-10.364 -144.069)" fill="#222221"/>
        <path id="Path_32525" data-name="Path 32525" d="M245.195,240.024a13.361,13.361,0,0,1,8.414-.269c.478.155.4.989-.141.9a20.071,20.071,0,0,0-8.086.115C244.891,240.9,244.742,240.192,245.195,240.024Z" transform="translate(-13.682 -160.56)" fill="#222221"/>
        <path id="Path_32526" data-name="Path 32526" d="M212.187,345.011a4.643,4.643,0,0,1-4.728-.743c-.323-.267.115-.789.444-.569a4.146,4.146,0,0,0,3.937.436C212.342,343.946,212.687,344.812,212.187,345.011Z" transform="translate(-6.467 -180.614)" fill="#222221"/>
        <path id="Path_32527" data-name="Path 32527" d="M204.026,344.844a4.913,4.913,0,0,0,5.2,1.5c.506-.1.821.61.342.857-2.09,1.09-4.956.029-6.206-1.857C203.1,344.947,203.72,344.5,204.026,344.844Z" transform="translate(-5.69 -180.82)" fill="#222221"/>
        <path id="Path_32528" data-name="Path 32528" d="M167.035,225.548a21.772,21.772,0,0,1-7.113,3.644c-.407.129-.676-.545-.276-.7a42.776,42.776,0,0,0,6.815-3.7C166.922,224.5,167.445,225.207,167.035,225.548Z" transform="translate(2.729 -157.781)" fill="#222221"/>
        <path id="Path_32529" data-name="Path 32529" d="M162.724,225.334a58.625,58.625,0,0,0-7.512,4.431c-.364.265-.821-.353-.472-.642a25.212,25.212,0,0,1,7.643-4.638C162.882,224.315,163.168,225.094,162.724,225.334Z" transform="translate(3.657 -157.73)" fill="#222221"/>
        <path id="Path_32530" data-name="Path 32530" d="M164.024,328.969a4.766,4.766,0,0,1,.065-5.054.484.484,0,0,1,.83.5,4.765,4.765,0,0,0-.253,4.194A.369.369,0,0,1,164.024,328.969Z" transform="translate(1.984 -176.783)" fill="#222221"/>
        <path id="Path_32531" data-name="Path 32531" d="M162.02,332.606a13.969,13.969,0,0,1-1.223-5.886.437.437,0,0,1,.874.02,26.44,26.44,0,0,0,1.04,5.592C162.838,332.731,162.179,332.988,162.02,332.606Z" transform="translate(2.473 -177.285)" fill="#222221"/>
        <path id="Path_32532" data-name="Path 32532" d="M162.005,359.116c-.675,1.149-.21,2.974,1.531,2.5a1.3,1.3,0,0,0,1.04-1.743,1.761,1.761,0,0,0-2.368-.792A.514.514,0,0,1,162.005,359.116Zm-.983-.633a2.264,2.264,0,0,1,1.454-.886,2.524,2.524,0,0,1,.442-.065.19.19,0,0,0,.071-.009.046.046,0,0,1,.039.009,3.233,3.233,0,0,1,2.752,1.777,2.616,2.616,0,0,1-1.84,3.564,2.7,2.7,0,0,1-3.559-2.078A3.169,3.169,0,0,1,161.023,358.483Z" transform="translate(2.555 -183.278)" fill="#222221"/>
        <path id="Path_32533" data-name="Path 32533" d="M159.392,356.033a2.157,2.157,0,0,0-1.113,2.952.314.314,0,0,1-.545.31c-.92-1.3-.316-3.649,1.363-4A.4.4,0,0,1,159.392,356.033Z" transform="translate(3.141 -182.848)" fill="#222221"/>
        <path id="Path_32534" data-name="Path 32534" d="M157.506,352.962a3.293,3.293,0,0,0-1.327,3.125c.052.39-.5.548-.6.151a3.743,3.743,0,0,1,1.551-3.95C157.551,352.007,157.891,352.673,157.506,352.962Z" transform="translate(3.491 -182.26)" fill="#222221"/>
        <path id="Path_32535" data-name="Path 32535" d="M147.278,352.061c-3.188-5.651-6.536-11.245-9.362-17.1l-.254-.651a.667.667,0,0,1,1.235-.372c.681,1.039,1.336,2.085,1.976,3.143l.207.314c2.441,4.016,4.69,8.143,7,12.228l4.687,8.281c.883,1.556,1.676,3.336,2.654,4.943l.1-.053.541,1.029a11,11,0,0,0,1.23,1.515.789.789,0,0,1,.026,1.166l-.862.289a.961.961,0,0,1-.452-.2c-1.911-1.565-2.844-4.126-4.042-6.244Q149.619,356.211,147.278,352.061Z" transform="translate(6.913 -178.689)" fill="#222221"/>
        <path id="Path_32536" data-name="Path 32536" d="M127.978,294.226c.554-.056.547.834-.017.883a16.253,16.253,0,0,1-7.183-1,.3.3,0,0,1,.168-.573A18.233,18.233,0,0,0,127.978,294.226Z" transform="translate(10.193 -170.99)" fill="#222221"/>
        <path id="Path_32537" data-name="Path 32537" d="M116.377,293.7a12.19,12.19,0,0,0,4,2.034,20.9,20.9,0,0,0,4.455.453.4.4,0,0,1,.088.793c-3.043.687-6.605-.924-8.874-2.858C115.81,293.928,116.132,293.527,116.377,293.7Z" transform="translate(11.079 -171.017)" fill="#222221"/>
        <path id="Path_32538" data-name="Path 32538" d="M120.871,389.955A24.189,24.189,0,0,1,111.7,394.4c-.354.089-.463-.424-.136-.543a39.181,39.181,0,0,0,8.828-4.549C120.772,389.045,121.226,389.655,120.871,389.955Z" transform="translate(11.962 -189.368)" fill="#222221"/>
        <path id="Path_32539" data-name="Path 32539" d="M114.5,390.347c2.332-1.041,4.7-2.09,7.1-2.973.429-.153.711.574.3.751-2.35,1.008-4.794,1.856-7.2,2.7C114.418,390.926,114.237,390.458,114.5,390.347Z" transform="translate(11.384 -189.006)" fill="#222221"/>
        <path id="Path_32540" data-name="Path 32540" d="M85.221,394.433A342.111,342.111,0,0,1,42.186,406.4c-25.911,5.609-55.071,9.393-80.8.852a.848.848,0,0,1-.536-1.157c-.024-.022-.039-.045-.063-.067l1.3-.424a143.939,143.939,0,0,0,39.872,4.413,230.48,230.48,0,0,0,40.516-5.621A347.279,347.279,0,0,0,83.2,393.133a212.207,212.207,0,0,0,21.084-8.617c6.294-3,12.176-6.7,18.358-9.888a.472.472,0,0,1-.151-.017l.862-.289c.573-.015,1.075.712.541,1.138C112.768,384.155,98.412,389.71,85.221,394.433Z" transform="translate(40.873 -186.504)" fill="#222221"/>
        <path id="Path_32541" data-name="Path 32541" d="M37.246,358.759a195.758,195.758,0,0,0,33.319-9.1c11.264-4.187,21.765-9.777,32.488-15.138a.421.421,0,0,1,.255-.045l.254.651a.34.34,0,0,1-.11.11c-19.3,13.814-44.067,21.656-67.251,25.642a195.521,195.521,0,0,1-70-.691,135.023,135.023,0,0,0-4.248,17.1c-1.146,6.634-2.5,13.95-.283,20.467a.472.472,0,0,1,.021.2l-1.3.424a.433.433,0,0,1-.049-.088c-2.567-5.99-1.525-12.744-.6-19a114.914,114.914,0,0,1,4.919-20.5.925.925,0,0,1,1.189-.59l.084.006A192.673,192.673,0,0,0,37.246,358.759Z" transform="translate(41.267 -178.853)" fill="#222221"/>
      </g>
    </g>
  </g>
  <path id="Path_32542" data-name="Path 32542" d="M315.688,161.634c-6.77,4.18-13.575,8.433-20.092,13a.689.689,0,0,0,.695,1.189c6.906-3.942,13.651-8.282,20.315-12.619C317.581,162.57,316.691,161.015,315.688,161.634Z" transform="translate(-56.694 -31.006)"/>
  <path id="Path_32543" data-name="Path 32543" d="M282.046,139.294a56.482,56.482,0,0,0-4.6,7.675c-1.15,2.169-2.587,4.42-2.835,6.895-.078.781.949,1.044,1.442.6,1.87-1.69,2.926-4.282,4.238-6.406,1.479-2.395,3.147-4.692,4.551-7.128C285.912,139.072,283.269,137.675,282.046,139.294Z" transform="translate(-52.724 -26.608)"/>
  <path id="Path_32544" data-name="Path 32544" d="M330.962,203.486c-6.734.455-13.578.813-20.26,1.782-1.475.214-1.066,2.519.344,2.539,6.613.093,13.315-.452,19.916-.869C333.17,206.8,333.181,203.336,330.962,203.486Z" transform="translate(-59.477 -39.068)"/>
</svg>
