<svg xmlns="http://www.w3.org/2000/svg" xmlns:xlink="http://www.w3.org/1999/xlink" width="350.578" height="348.339" viewBox="0 0 350.578 348.339">
  <defs>
    <linearGradient id="linear-gradient" x1="0.179" y1="0.087" x2="0.489" y2="0.613" gradientUnits="objectBoundingBox">
      <stop offset="0.004" stop-color="#e38ddd"/>
      <stop offset="1" stop-color="#9571f6"/>
    </linearGradient>
    <linearGradient id="linear-gradient-2" x1="0.35" y1="0.056" x2="0.838" y2="1.85" gradientUnits="objectBoundingBox">
      <stop offset="0" stop-color="#ff9085"/>
      <stop offset="1" stop-color="#fb6fbb"/>
    </linearGradient>
    <clipPath id="clip-path">
      <path id="Path_32624" data-name="Path 32624" d="M1852.883,592.992c-9.492-10.891-6.371-32.6-.094-46.149,7.329-15.819,16.02-14.166,20.762-26.912,8.83-23.731-17.676-39.192-10.669-63.83,5.728-20.142,25.616-17.452,30.944-40.046,3.845-16.3-4.662-25.54,3.361-38.628.686-1.119,8.256-13.079,20.128-13.411,11.982-.336,21.339,11.371,25.291,19.926,7.306,15.815-2.762,23.223-.981,45.149,2.426,29.851,22.524,33.789,19.767,56.138-2.277,18.455-16.507,20.027-18.625,40.54-1.967,19.048,9.589,24.615,7.038,37.3C1943.937,592.26,1872.243,615.208,1852.883,592.992Z" transform="translate(-1846.869 -364.008)" fill="url(#linear-gradient)"/>
    </clipPath>
    <clipPath id="clip-path-2">
      <path id="Path_32631" data-name="Path 32631" d="M2086.4,1062.135c-2.867.174-9.257-1.975-10.692-3.222-9.549-8.3-28.436-22.676-30.173-35.936-.3-2.265,9.314-6.259,10.323-8.583,5.509-4.034,7.67-5.092,11.024-11.5,9.9-18.918-25.749-44.06,6.787-61.523,23.832-12.792,46.917-8.157,36.656-46.991s7.221-116.525,54.034-97.026c26.866,11.19,9.061,49.293,26.058,71.63,16.152,21.226,9.9,42.442-12.322,61.29s-6.842,27.123,4.668,48.029c13.825,25.113-26.459,37.743-45.555,41.987C2121.83,1023.706,2084.979,1042.784,2086.4,1062.135Z" transform="translate(-2045.528 -794.265)" fill="url(#linear-gradient-2)"/>
    </clipPath>
    <linearGradient id="linear-gradient-5" x1="0.491" y1="0.477" x2="0.209" y2="0.496" gradientUnits="objectBoundingBox">
      <stop offset="0" stop-color="#444b8c"/>
      <stop offset="0.996" stop-color="#26264f"/>
    </linearGradient>
    <linearGradient id="linear-gradient-6" x1="0.708" y1="0.034" x2="0.013" y2="1.514" xlink:href="#linear-gradient-5"/>
    <linearGradient id="linear-gradient-7" x1="0.39" y1="0.363" x2="1.101" y2="1.237" gradientUnits="objectBoundingBox">
      <stop offset="0" stop-color="#ffc444"/>
      <stop offset="0.996" stop-color="#f36f56"/>
    </linearGradient>
    <linearGradient id="linear-gradient-8" x1="1.226" y1="-1.493" x2="-27.992" y2="78.647" xlink:href="#linear-gradient-7"/>
    <linearGradient id="linear-gradient-9" y1="0.5" x2="1" y2="0.5" gradientUnits="objectBoundingBox">
      <stop offset="0" stop-color="#311944"/>
      <stop offset="1" stop-color="#893976"/>
    </linearGradient>
    <linearGradient id="linear-gradient-10" x1="0.464" y1="0.011" x2="1.433" y2="1.279" gradientUnits="objectBoundingBox">
      <stop offset="0" stop-color="#aa80f9"/>
      <stop offset="0.996" stop-color="#6165d7"/>
    </linearGradient>
    <linearGradient id="linear-gradient-11" x1="0.992" y1="0.744" x2="0.167" y2="-0.584" xlink:href="#linear-gradient-10"/>
    <linearGradient id="linear-gradient-12" x1="0.361" y1="0.482" x2="1.289" y2="0.482" xlink:href="#linear-gradient-9"/>
    <linearGradient id="linear-gradient-13" x1="1.03" y1="1.09" x2="0.728" y2="-0.158" xlink:href="#linear-gradient"/>
    <linearGradient id="linear-gradient-14" x1="5.426" y1="-2.425" x2="5.628" y2="2.65" xlink:href="#linear-gradient-10"/>
    <linearGradient id="linear-gradient-15" x1="19.342" y1="1.152" x2="19.206" y2="-5.073" xlink:href="#linear-gradient-7"/>
    <linearGradient id="linear-gradient-16" x1="8.273" y1="-1.495" x2="8.593" y2="1.478" xlink:href="#linear-gradient-10"/>
    <linearGradient id="linear-gradient-17" x1="13.88" y1="1.353" x2="13.784" y2="-3.033" xlink:href="#linear-gradient-7"/>
    <linearGradient id="linear-gradient-18" y1="0.5" x2="1" y2="0.5" gradientUnits="objectBoundingBox">
      <stop offset="0.004" stop-color="#26264f"/>
      <stop offset="1" stop-color="#444b8c"/>
    </linearGradient>
    <linearGradient id="linear-gradient-19" x1="0" y1="0.5" x2="1" y2="0.5" xlink:href="#linear-gradient-2"/>
    <linearGradient id="linear-gradient-21" x1="0.443" y1="0.229" x2="0.813" y2="0.772" xlink:href="#linear-gradient-18"/>
    <linearGradient id="linear-gradient-22" x1="0" y1="0.5" x2="1" y2="0.5" xlink:href="#linear-gradient-7"/>
    <linearGradient id="linear-gradient-23" x1="0.6" y1="0.342" x2="0.197" y2="0.984" gradientUnits="objectBoundingBox">
      <stop offset="0.004" stop-color="#6165d7"/>
      <stop offset="1" stop-color="#aa80f9"/>
    </linearGradient>
    <linearGradient id="linear-gradient-24" y1="0.5" x2="1" y2="0.5" gradientUnits="objectBoundingBox">
      <stop offset="0" stop-color="#893976"/>
      <stop offset="1" stop-color="#311944"/>
    </linearGradient>
    <linearGradient id="linear-gradient-25" x1="0.9" y1="-2.991" x2="0.477" y2="0.705" xlink:href="#linear-gradient-18"/>
    <linearGradient id="linear-gradient-28" x1="1.995" y1="2.273" x2="2.752" y2="0.613" xlink:href="#linear-gradient-7"/>
    <linearGradient id="linear-gradient-29" x1="5.009" y1="2.669" x2="8.983" y2="0.78" xlink:href="#linear-gradient-7"/>
  </defs>
  <g id="Group_46880" data-name="Group 46880" transform="translate(-434.289 -352.039)">
    <path id="Path_32617" data-name="Path 32617" d="M742.688,651.62a134.05,134.05,0,0,1-23.541,19.109c-60.969,40.709-130.662,28.976-152.21,24.965-34.764-6.471-64.11-11.035-89.323-33.814-57.292-51.761-54.506-159.739-10.727-226.627,5.191-7.931,48.9-72.726,118.747-81.856,1.708-.223,2.983-.351,4.1-.469,10.8-1.144,77.76-7.182,132.355,38.558a162.87,162.87,0,0,1,32.054,36.369C796.785,493.716,796.921,595.719,742.688,651.62Z" fill="#f4f7fa"/>
    <g id="Group_46867" data-name="Group 46867" transform="translate(604.336 353.479)">
      <g id="Group_46866" data-name="Group 46866" transform="translate(0 0)">
        <path id="Path_32618" data-name="Path 32618" d="M1852.883,592.992c-9.492-10.891-6.371-32.6-.094-46.149,7.329-15.819,16.02-14.166,20.762-26.912,8.83-23.731-17.676-39.192-10.669-63.83,5.728-20.142,25.616-17.452,30.944-40.046,3.845-16.3-4.662-25.54,3.361-38.628.686-1.119,8.256-13.079,20.128-13.411,11.982-.336,21.339,11.371,25.291,19.926,7.306,15.815-2.762,23.223-.981,45.149,2.426,29.851,22.524,33.789,19.767,56.138-2.277,18.455-16.507,20.027-18.625,40.54-1.967,19.048,9.589,24.615,7.038,37.3C1943.937,592.26,1872.243,615.208,1852.883,592.992Z" transform="translate(-1846.869 -364.008)" fill="url(#linear-gradient)"/>
        <g id="Group_46865" data-name="Group 46865" clip-path="url(#clip-path)">
          <g id="Group_46864" data-name="Group 46864" transform="translate(17.505 -14.513)">
            <path id="Path_32619" data-name="Path 32619" d="M2005.718,570.861a.24.24,0,0,1-.069-.47,85.148,85.148,0,0,0,32.422-18.023c8.81-7.851,17.919-15.969,20.331-28.2,1.824-9.25-1.27-15.231-5.187-22.8-3.816-7.377-8.566-16.557-9.763-31.732-.684-8.665-1.534-19.448,3.938-30.837a37.262,37.262,0,0,1,10.134-12.81c3.4-3.026,6.094-5.417,6.945-10.616,1.389-8.487-1.8-14.96-5.485-22.455a87.02,87.02,0,0,1-6.3-15.324c-4.686-16.613-.137-36.283,13.519-58.466a.24.24,0,1,1,.408.251c-13.582,22.064-18.113,41.606-13.465,58.084a86.7,86.7,0,0,0,6.27,15.243c3.725,7.569,6.943,14.106,5.528,22.745-.878,5.367-3.761,7.93-7.1,10.9A36.852,36.852,0,0,0,2047.823,439c-5.417,11.272-4.571,21.984-3.892,30.591,1.19,15.078,5.915,24.211,9.711,31.549,3.96,7.654,7.088,13.7,5.231,23.115-2.444,12.394-11.614,20.566-20.482,28.47a85.626,85.626,0,0,1-32.6,18.125A.24.24,0,0,1,2005.718,570.861Z" transform="translate(-2003.89 -309.91)" fill="#fff" opacity="0.7" style="mix-blend-mode: soft-light;isolation: isolate"/>
            <path id="Path_32620" data-name="Path 32620" d="M2177.792,864.783a.24.24,0,0,1-.2-.1c-14.353-20.87-19.259-38.2-20.847-49.059-1.724-11.788-.02-18.737,0-18.807a.24.24,0,0,1,.466.118c-.018.068-1.7,6.949.016,18.652,1.585,10.8,6.473,28.046,20.763,48.824a.24.24,0,0,1-.2.376Z" transform="translate(-2136.271 -730.04)" fill="#fff" opacity="0.7" style="mix-blend-mode: soft-light;isolation: isolate"/>
            <path id="Path_32621" data-name="Path 32621" d="M2336.968,1128.145a.24.24,0,0,1-.1-.457c12.119-5.792,22.083-13.28,29.616-22.253a71.14,71.14,0,0,0,13.354-24.192,67.961,67.961,0,0,0,3.133-27.419.24.24,0,1,1,.475-.069,68.455,68.455,0,0,1-3.144,27.613,71.612,71.612,0,0,1-13.442,24.365c-7.578,9.031-17.6,16.564-29.786,22.389A.242.242,0,0,1,2336.968,1128.145Z" transform="translate(-2295.263 -956.03)" fill="#fff" opacity="0.7" style="mix-blend-mode: soft-light;isolation: isolate"/>
            <path id="Path_32622" data-name="Path 32622" d="M2036.457,1686.763a.24.24,0,0,1-.12-.032c-25.136-14.543-35.743-32.438-40.215-44.889-4.849-13.5-3.73-23.708-3.718-23.81a.24.24,0,0,1,.477.056c-.012.1-1.117,10.215,3.7,23.617,4.447,12.368,15,30.147,39.995,44.61a.24.24,0,0,1-.12.448Z" transform="translate(-1992.284 -1452.374)" fill="#fff" opacity="0.7" style="mix-blend-mode: soft-light;isolation: isolate"/>
            <path id="Path_32623" data-name="Path 32623" d="M2395.843,308.341a.24.24,0,0,1-.133-.44c19.239-12.791,25.292-29.544,26.983-41.347a60.82,60.82,0,0,0-.952-22.8.24.24,0,1,1,.462-.132,61.3,61.3,0,0,1,.968,22.982c-1.7,11.905-7.8,28.8-27.2,41.7A.236.236,0,0,1,2395.843,308.341Z" transform="translate(-2347.051 -243.446)" fill="#fff" opacity="0.7" style="mix-blend-mode: soft-light;isolation: isolate"/>
          </g>
        </g>
      </g>
    </g>
    <g id="Group_46873" data-name="Group 46873" transform="translate(628.25 405.274)">
      <g id="Group_46872" data-name="Group 46872" transform="translate(0)">
        <g id="Group_46871" data-name="Group 46871">
          <path id="Path_32625" data-name="Path 32625" d="M2086.4,1062.135c-2.867.174-9.257-1.975-10.692-3.222-9.549-8.3-28.436-22.676-30.173-35.936-.3-2.265,9.314-6.259,10.323-8.583,5.509-4.034,7.67-5.092,11.024-11.5,9.9-18.918-25.749-44.06,6.787-61.523,23.832-12.792,46.917-8.157,36.656-46.991s7.221-116.525,54.034-97.026c26.866,11.19,9.061,49.293,26.058,71.63,16.152,21.226,9.9,42.442-12.322,61.29s-6.842,27.123,4.668,48.029c13.825,25.113-26.459,37.743-45.555,41.987C2121.83,1023.706,2084.979,1042.784,2086.4,1062.135Z" transform="translate(-2045.528 -794.265)" fill="url(#linear-gradient-2)"/>
          <g id="Group_46870" data-name="Group 46870" clip-path="url(#clip-path-2)">
            <g id="Group_46869" data-name="Group 46869" transform="translate(15.294 -6.851)">
              <g id="Group_46868" data-name="Group 46868">
                <path id="Path_32626" data-name="Path 32626" d="M2172.939,991.947l-.366-.489c75.313-56.377,109.016-151.329,90.156-253.995l.6-.111c8.938,48.656,5.9,97.436-8.79,141.066C2239.1,924.288,2210.881,963.545,2172.939,991.947Z" transform="translate(-2172.573 -737.353)" fill="#fcfdfe"/>
                <path id="Path_32627" data-name="Path 32627" d="M2586.26,2394.2c-25.521-3.282-65.727,4.191-89.625,16.659l-.282-.542c23.992-12.517,64.359-20.019,89.985-16.724Z" transform="translate(-2457.376 -2193.531)" fill="#fcfdfe"/>
                <path id="Path_32628" data-name="Path 32628" d="M2222.823,2101.8l-.487-.369c8.45-11.176,10.926-26.2,7.358-44.639-2.616-13.524-8.36-28.541-17.073-44.633l.537-.291c8.742,16.148,14.508,31.223,17.136,44.808C2233.9,2075.3,2231.382,2090.478,2222.823,2101.8Z" transform="translate(-2207.799 -1858.441)" fill="#fcfdfe"/>
                <path id="Path_32629" data-name="Path 32629" d="M2865.1,1587.677l-.506-.343c14.845-21.885,40.772-31.943,59.908-36.526l.143.594C2905.618,1555.961,2879.839,1565.954,2865.1,1587.677Z" transform="translate(-2781.293 -1452.885)" fill="#fcfdfe"/>
                <path id="Path_32630" data-name="Path 32630" d="M2682.031,900.774l-.607.071c-3.471-29.589-25.186-52.092-37.821-62.872l.4-.465C2656.7,848.347,2678.536,870.978,2682.031,900.774Z" transform="translate(-2586.901 -825.451)" fill="#fcfdfe"/>
              </g>
            </g>
          </g>
        </g>
      </g>
    </g>
    <g id="Group_46876" data-name="Group 46876" transform="translate(464.561 361.857)">
      <path id="Path_32632" data-name="Path 32632" d="M854.538,444.919l35.031,291.168a7.672,7.672,0,0,1-6.7,8.7L736.963,760.8c-8.938.556-13.832-4.01-14.384-8.653L685.8,442.59c-.548-4.616,3.837-8.8,12.813-8.8l147.235,3.1A9.281,9.281,0,0,1,854.538,444.919Z" transform="translate(-685.756 -433.77)" fill="url(#linear-gradient-5)"/>
      <path id="Path_32633" data-name="Path 32633" d="M904.223,444.251l35.223,292.624a7.708,7.708,0,0,1-6.722,8.742l-151.265,15.06a8.843,8.843,0,0,1-9.643-7.625l-36.985-311.16a7.34,7.34,0,0,1,7.726-8.289L895.5,436.185A9.324,9.324,0,0,1,904.223,444.251Z" transform="translate(-728.873 -433.603)" fill="url(#linear-gradient-6)"/>
      <path id="Path_32634" data-name="Path 32634" d="M955.964,590.195l32.647,271.32a7.188,7.188,0,0,1-6.294,8.153L840.058,883.5a8.247,8.247,0,0,1-8.965-7.117L796.914,588.94a6.876,6.876,0,0,1,7.173-7.77L947.806,582.7A8.652,8.652,0,0,1,955.964,590.195Z" transform="translate(-783.485 -563.406)" fill="url(#linear-gradient-7)"/>
      <path id="Path_32635" data-name="Path 32635" d="M1443.184,499.472a2.42,2.42,0,0,1-2.5,2.785,3.336,3.336,0,0,1-3.18-2.862,2.421,2.421,0,0,1,2.5-2.785A3.336,3.336,0,0,1,1443.184,499.472Z" transform="translate(-1346.992 -489.026)" fill="url(#linear-gradient-8)"/>
      <g id="Group_46874" data-name="Group 46874" transform="translate(5.901)" style="mix-blend-mode: soft-light;isolation: isolate">
        <path id="Path_32636" data-name="Path 32636" d="M876.758,642.52c-29.124-53.845-72.63-69.963-85.729-125.456-7.08-30-2.256-58.707,5.869-82.542l-54.339-.917a7.339,7.339,0,0,0-7.726,8.289l36.985,311.16a8.843,8.843,0,0,0,9.643,7.625l118.909-11.839C901.248,700.592,889.74,666.521,876.758,642.52Z" transform="translate(-734.775 -433.603)" fill="#fff"/>
      </g>
      <g id="Group_46875" data-name="Group 46875" transform="translate(46.005 212.156)" style="mix-blend-mode: soft-light;isolation: isolate">
        <path id="Path_32637" data-name="Path 32637" d="M1206.17,2195.992h-133.08a5.058,5.058,0,0,0-5.059,6.266h0a7.637,7.637,0,0,0,7.337,6.133l132.555-2.858c1.992-.043,3.2-2.2,2.725-4.809h0C1210.167,2198.11,1208.17,2195.992,1206.17,2195.992Z" transform="translate(-1067.924 -2195.992)" fill="#fff"/>
        <path id="Path_32638" data-name="Path 32638" d="M1241.486,2346.656l-132.082,5.434a5.3,5.3,0,0,0-5.012,6.52,7.243,7.243,0,0,0,7.29,5.879l131.557-8.292c1.977-.125,3.178-2.343,2.7-4.956S1243.471,2346.575,1241.486,2346.656Z" transform="translate(-1099.908 -2328.517)" fill="#fff"/>
      </g>
    </g>
    <g id="Group_46877" data-name="Group 46877" transform="translate(515.613 405.833)">
      <path id="Path_32639" data-name="Path 32639" d="M1171.1,922.414a13.237,13.237,0,0,1-6.991-1.817,158.559,158.559,0,0,1-25.914-18.5c-11.794-10.543-19.191-21.259-21.9-31.782l-.042-.165-6.228-44.9c-1.181-8.874,3.423-16.078,13.235-20.811,8.107-3.911,19.283-5.848,31.411-5.484,11.987.36,23.375,2.923,32.121,7.2,10.4,5.078,16.445,12.214,17.571,20.675l5.477,42.9,0,.158c.147,10.077-3.961,20.493-12.268,31.027a112.143,112.143,0,0,1-20.065,19.292A11.115,11.115,0,0,1,1171.1,922.414Z" transform="translate(-1109.848 -798.91)" fill="url(#linear-gradient-9)"/>
      <path id="Path_32640" data-name="Path 32640" d="M1195.415,922.414a12.945,12.945,0,0,1-6.9-1.817,156.878,156.878,0,0,1-25.6-18.5c-11.657-10.543-18.974-21.259-21.663-31.782l-.042-.165-6.224-44.9c-1.181-8.874,3.349-16.078,13.023-20.811,7.993-3.911,19.018-5.848,30.987-5.484,11.829.36,23.072,2.923,31.709,7.2,10.267,5.078,16.249,12.214,17.375,20.675l5.48,42.9,0,.158c.163,10.077-3.872,20.493-12.052,31.027a111.012,111.012,0,0,1-19.766,19.292A10.859,10.859,0,0,1,1195.415,922.414Z" transform="translate(-1131.793 -798.91)" fill="url(#linear-gradient-10)"/>
      <path id="Path_32641" data-name="Path 32641" d="M1158.864,845.435l6.2,44.676c5.859,22.795,34.054,41.25,46.2,48.262a9.469,9.469,0,0,0,10.467-.294c9.976-7.517,31.789-26.442,31.473-48.358l-5.462-42.786C1243.513,815.189,1154.453,812.287,1158.864,845.435Z" transform="translate(-1152.824 -819.064)" fill="url(#linear-gradient-11)"/>
      <path id="Path_32642" data-name="Path 32642" d="M1278.486,992.439a1.632,1.632,0,0,1-.861-.229,148.138,148.138,0,0,1-23.605-16.96c-9.552-8.6-15.513-16.953-17.67-24.8l-6.092-43.936c-.551-4.216,2.176-7.824,8.077-10.71,6.588-3.223,16.327-4.914,26.674-4.659,10.243.252,20.2,2.391,27.364,5.852,6.336,3.061,9.813,6.67,10.364,10.74l5.413,42.415c-.027,7.6-3.49,15.784-10.336,24.392a104.808,104.808,0,0,1-18.534,17.629A1.381,1.381,0,0,1,1278.486,992.439Z" transform="translate(-1215.702 -880.017)" fill="url(#linear-gradient-12)"/>
      <path id="Path_32643" data-name="Path 32643" d="M1290.148,1009.7a144.088,144.088,0,0,1-22.334-16.165c-8.979-8.093-14.585-15.86-16.616-23.046l-6.056-43.681c-.394-3.014,1.9-5.779,6.8-8.186,6.239-3.063,15.548-4.677,25.494-4.445,9.851.229,19.376,2.248,26.173,5.524,5.281,2.545,8.151,5.321,8.548,8.261l5.393,42.259c-.081,6.972-3.38,14.6-9.844,22.707A101.784,101.784,0,0,1,1290.148,1009.7Z" transform="translate(-1228.817 -900.284)" fill="url(#linear-gradient-13)"/>
      <path id="Path_32644" data-name="Path 32644" d="M1365.951,1060.242a5.794,5.794,0,0,1-4.508-2.155l-20.931-25.932a5.794,5.794,0,0,1,9.016-7.278l14.354,17.785,14.6-42.383a5.794,5.794,0,0,1,10.955,3.773l-18.008,52.282a5.795,5.795,0,0,1-5.478,3.907Z" transform="translate(-1311.615 -972.601)" fill="#fff"/>
    </g>
    <g id="Group_46879" data-name="Group 46879" transform="translate(574.928 467.388)">
      <path id="Path_32645" data-name="Path 32645" d="M2242.655,3129.679s-10.8,5.49-10.979,6.365,6.947-.294,9.855-.167,5.3-.834,5.037-2.212-1.281-4.841-1.281-4.841Z" transform="translate(-2155.942 -2909.905)" fill="url(#linear-gradient-14)"/>
      <path id="Path_32646" data-name="Path 32646" d="M2319.619,3094.164l.657,5.438a3.441,3.441,0,0,0,2.859-.124l.49-5.964Z" transform="translate(-2233.301 -2878.844)" fill="url(#linear-gradient-15)"/>
      <path id="Path_32647" data-name="Path 32647" d="M2685.226,3100l1.257,2.255a2.965,2.965,0,0,1,.287,2.109c-.439,1.875-1.317,5.53-1.7,6.483-.521,1.3-7.512,2.069-7.512,2.069s-.624-.981.828-2.166,2.385-1.371,2.9-3.119a50.821,50.821,0,0,0,.854-6.693Z" transform="translate(-2548.035 -2884.549)" fill="url(#linear-gradient-16)"/>
      <path id="Path_32648" data-name="Path 32648" d="M2698.777,3047.657c.459.409,2.7,8.029,2.7,8.029s.727,1.039,2.107-.495.625-.688.625-.688l-.259-7.494Z" transform="translate(-2566.816 -2837.938)" fill="url(#linear-gradient-17)"/>
      <path id="Path_32649" data-name="Path 32649" d="M2267.257,2136.135c-.57,16.221-.593,33.845.242,52.673.94,21.2,2.829,40.8,5.209,58.56.885.032,1.815.037,2.786.007.656-.021,1.292-.056,1.906-.1a146.649,146.649,0,0,0,4-14.312,152.339,152.339,0,0,0,2.795-16.759c2.08-18.373-.357-19.976,1.331-33.592,1.5-12.06,3.622-12.53,6.118-29.652,2.708-18.577.692-21.364-.288-22.37C2287.182,2126.3,2277.379,2129.217,2267.257,2136.135Z" transform="translate(-2186.883 -2030.068)" fill="url(#linear-gradient-18)"/>
      <path id="Path_32650" data-name="Path 32650" d="M2304.571,2130.6c-3.981-4.088-13.085-1.613-22.7,4.626,11.062,13.363,12.268,22.031,10.941,27.655-1.5,6.357-6.055,8.188-6.038,15.139.021,8.542,6.917,10.8,6.77,19.844-.1,5.977-3.127,5.915-3.842,13.3-.846,8.735,3.111,11.745,1.83,18.207-.552,2.78-2.126,6.414-6.61,10.156.323,2.654.655,5.281,1,7.859.884.031,1.814.036,2.786.006.656-.02,1.292-.056,1.906-.1a146.7,146.7,0,0,0,4-14.312,152.319,152.319,0,0,0,2.794-16.759c2.08-18.373-.357-19.976,1.331-33.592,1.5-12.059,3.621-12.531,6.117-29.652C2307.567,2134.4,2305.551,2131.609,2304.571,2130.6Z" transform="translate(-2200.096 -2030.085)" opacity="0.3" fill="url(#linear-gradient-19)" style="mix-blend-mode: multiply;isolation: isolate"/>
      <path id="Path_32651" data-name="Path 32651" d="M2327.164,2123.317a378.731,378.731,0,0,1,28.986,58.187,393.494,393.494,0,0,1,15.676,48.689,5.289,5.289,0,0,0,3.188.553,5.834,5.834,0,0,0,3.612-2.182,117.141,117.141,0,0,0,.828-25.865,98.652,98.652,0,0,0-3.253-19.441c-2.629-9.483-4.437-10.016-7.868-20.049-3.561-10.413-2.7-13.012-6.108-26.043a185.359,185.359,0,0,0-7.615-22.85Z" transform="translate(-2239.938 -2017.522)" fill="url(#linear-gradient-18)"/>
      <path id="Path_32652" data-name="Path 32652" d="M2159.012,1358.17c-10.517-6.869-15.024-6.077-18.073-12.246-3.015-6.1-3.009-15.784,1.982-20.913.366-.377,4.167-4.162,9.312-3.513,7.78.981,8.353,10.81,17.08,15.313,7.395,3.816,15.458,1.132,20.916-.684,13.141-4.373,15.093-12.646,21.906-11.328,8.538,1.652,9.293,15.38,17.8,16.226,5.685.565,7.039-5.4,14.513-7.041,8.782-1.93,18.419,3.776,23.823,10.715,9.878,12.683,7.276,31.613,1.1,43.169-5.078,9.493-16,20.413-25.192,18.063-7.265-1.856-9.631-11.015-15.882-10.1-4.444.648-4.6,5.476-9.858,7.96-8.626,4.08-19.275-3.7-22.18-5.818-8.28-6.046-6.961-9.913-17.637-22.034C2174.4,1371.148,2168.325,1364.252,2159.012,1358.17Z" transform="translate(-2074.321 -1320.078)" fill="url(#linear-gradient-21)"/>
      <path id="Path_32653" data-name="Path 32653" d="M1611.941,1321.624s-1.777-2.487-2.9-4.335-6.392-7.04-6.392-7.04-.4.824.732,2.142,3.518,3.578,2.97,4.533-2.092,1.8-.978,3.6,3.051.572,4.042,2.02,2,3.027,2,3.027Z" transform="translate(-1602.574 -1310.249)" fill="url(#linear-gradient-22)"/>
      <path id="Path_32654" data-name="Path 32654" d="M1659.863,1391.26l-3.6,6.083a65.318,65.318,0,0,0,7.168,15.708,60.381,60.381,0,0,0,15.543,16.577c11.879,8.459,33.521,16.352,39.856,7.35,5.653-8.033-3.471-25.837-5.152-29.034a41.9,41.9,0,0,1-16.172,4.707,37.9,37.9,0,0,1-15.385-1.77C1669.349,1406.491,1662.257,1395.417,1659.863,1391.26Z" transform="translate(-1649.804 -1381.508)" fill="#fff"/>
      <path id="Path_32655" data-name="Path 32655" d="M2017.866,1515.909c.6,3,9.941,1.393,11.869,6.845,1.035,2.926-1.162,4.784-1.254,9.753-.1,5.563,2.548,8.722,4.582,13.1,2.979,6.41,2.99,12.693,3.012,25.258.031,17.887-3.924,21.484-.547,27.249,4.394,7.5,14.947,7.983,17.8,8.113,9.754.443,10.911-4.739,21.5-5.357,12.088-.707,13.809,5.863,22.454,3.061,7.9-2.56,10.554-9.37,16.7-7.96,3.843.881,4.862,4.013,8.489,3.674,3.643-.341,7.41-3.952,7.667-7.655.319-4.6-4.712-10.4-12.6-10.409a22.4,22.4,0,0,1-14.1,1.072c-9.463-2.594-14.385-11.591-19.852-21.584-3.782-6.913-10.733-19.619-10.816-36.28-.034-6.871,1.127-8.881-.548-12.553-5.438-11.925-26.537-10.146-28.324-9.973C2029.52,1503.648,2017.144,1512.282,2017.866,1515.909Z" transform="translate(-1967.847 -1478.979)" fill="#fff"/>
      <g id="Group_46878" data-name="Group 46878" transform="translate(44.151 50.666)">
        <path id="Path_32656" data-name="Path 32656" d="M1970.988,1741.7l26.5,1.156a.727.727,0,0,1,.645.528l12.484,38.722c.179.555-.382,1.945-.907,1.882l-26.2-3.985a.733.733,0,0,1-.591-.508l-12.989-36.143C1969.746,1742.812,1970.475,1741.673,1970.988,1741.7Z" transform="translate(-1969.833 -1740.424)" fill="url(#linear-gradient-23)"/>
        <path id="Path_32657" data-name="Path 32657" d="M1970.083,1749.566l26.5,1.156a.728.728,0,0,1,.645.527l12.484,38.722a.78.78,0,0,1-.749,1.066l-26.36-3.169a.732.732,0,0,1-.591-.508l-12.626-36.71A.789.789,0,0,1,1970.083,1749.566Z" transform="translate(-1969.339 -1747.347)" fill="url(#linear-gradient-24)"/>
        <path id="Path_32658" data-name="Path 32658" d="M2028.076,1734.795l-1.021-3.087a.423.423,0,0,1,.358-.575h9.646a.389.389,0,0,1,.364.3l.97,3.414a.419.419,0,0,1-.375.556l-9.6-.328A.388.388,0,0,1,2028.076,1734.795Z" transform="translate(-2020.085 -1731.133)" fill="url(#linear-gradient-25)"/>
        <path id="Path_32659" data-name="Path 32659" d="M1993.643,1781.667c-1.721-6.241,1.112-10.305-1.78-15.155-4.09-6.86-12.876-3.957-15.608-9.492-.737-1.493-1.089-3.717-.1-7.187l-6.077-.265a.788.788,0,0,0-.695,1.085l12.626,36.71a.732.732,0,0,0,.591.508l16.02,1.927A17.879,17.879,0,0,1,1993.643,1781.667Z" transform="translate(-1969.339 -1747.349)" opacity="0.3" fill="url(#linear-gradient-24)" style="mix-blend-mode: multiply;isolation: isolate"/>
      </g>
      <path id="Path_32660" data-name="Path 32660" d="M2223.933,1943.2s-4-.891-5.549-1.977-3.183-2.834-5.46-2.739-4.568,1.39-3.516,1.687,3.017,2.63,4.518,3.548,4.931,1,5.57.951,3.16,1.646,3.16,1.646Z" transform="translate(-2136.126 -1862.855)" fill="url(#linear-gradient-24)"/>
      <path id="Path_32661" data-name="Path 32661" d="M2236.416,1643.821a22.4,22.4,0,0,1-14.1,1.072c-9.464-2.594-14.386-11.591-19.853-21.584-3.782-6.913-10.733-19.619-10.816-36.28-.034-6.871,1.127-8.881-.547-12.553a12.8,12.8,0,0,0-.918-1.647c-4.131,3.122-5.733,6.249-6.2,8.994-1.139,6.682,4.234,12.146,1.438,17.911-2.218,4.573-6.586,3.379-10.679,8.726a20.336,20.336,0,0,0-3.185,16.97c3.708,12.988,22.421,13.634,22.331,21.239-.065,5.484-9.847,9.731-15.458,11.1-12.494,3.056-22.887-3.6-25.184-5.146a11.262,11.262,0,0,0,.107,5.24,9.82,9.82,0,0,0,1.058,2.488c4.394,7.5,14.947,7.983,17.8,8.113,9.754.443,10.911-4.739,21.5-5.358,12.088-.707,13.809,5.863,22.454,3.061,7.9-2.56,10.554-9.37,16.7-7.96,3.843.881,4.862,4.013,8.488,3.674,3.644-.341,7.41-3.952,7.667-7.654C2249.33,1649.628,2244.3,1643.83,2236.416,1643.821Z" transform="translate(-2086.723 -1541.219)" fill="#d9dde3" opacity="0.57"/>
      <path id="Path_32662" data-name="Path 32662" d="M2304.128,1560.815l-3.7,7.348c1.9,1.041,22.21,11.785,36.932,1.148a25.212,25.212,0,0,0,9.265-11.655c2.874-7.544,1.262-14.558.216-19.114-2.589-11.277-9.91-23.107-20.3-27.86-3.967-1.816-8.678-2.734-13.109-3.6-3.758-.733-9.663-1.631-9.789-.995-.061.31,1.311.707,2.264,1.31,5.853,3.7-1.578,18.989,5.3,26.321,6.589,7.023,15.142,5.863,16.52,12.228a10.421,10.421,0,0,1-1.277,6.807C2323.16,1559.371,2314.286,1562.333,2304.128,1560.815Z" transform="translate(-2216.424 -1482.324)" fill="#fff"/>
      <path id="Path_32663" data-name="Path 32663" d="M2133.685,1412.324s2.385,7.753,5.356,8.961,7.667,2.592,8.257,3.13-15.783,6.48-24.963,3.745h0c2.616-1.28,3.315-1.689,3.315-1.689a15.665,15.665,0,0,0,3.224-2.381,13.687,13.687,0,0,0,3.115-4.9l-.858-4.4Z" transform="translate(-2059.766 -1400.036)" fill="url(#linear-gradient-28)"/>
      <path id="Path_32664" data-name="Path 32664" d="M2175,1384.235s-1.383,3.436-4.662,2.909c-2.936-.472-2.786-8.729-.792-10.134a3.539,3.539,0,0,1,3.017-.237,4.965,4.965,0,0,1,2.333,5.021c.647-.385,1.292-.324,1.515.021.284.438-.176,1.234-.28,1.415A2.414,2.414,0,0,1,2175,1384.235Z" transform="translate(-2100.01 -1368.563)" fill="url(#linear-gradient-29)"/>
    </g>
  </g>
</svg>
